<svg width="50" height="50" viewBox="0 0 50 50" fill="none" xmlns="http://www.w3.org/2000/svg">
<g clip-path="url(#clip0_2820_2794)">
<path d="M13.3742 22.5955L16.7742 23.9903V28.6649C16.7705 29.0584 16.8526 29.4479 17.0149 29.8061C17.1771 30.1643 17.4156 30.4825 17.7134 30.7383C19.6861 32.3814 22.1753 33.2697 24.7389 33.2453C27.3592 33.2486 29.9028 32.3579 31.9522 30.7195C32.2596 30.4737 32.5072 30.1611 32.6765 29.8051C32.8457 29.4492 32.932 29.0593 32.929 28.6649V24.0469L36.3478 22.5955C36.4483 22.5489 36.5335 22.4745 36.5934 22.381C36.6533 22.2875 36.6854 22.1788 36.6859 22.0677C36.6854 21.9566 36.6533 21.8479 36.5934 21.7544C36.5335 21.6609 36.4483 21.5865 36.3478 21.5399L25.2649 16.8276C25.1262 16.772 24.9715 16.772 24.8328 16.8276L13.3742 21.5399C13.2687 21.5816 13.1782 21.6543 13.1145 21.7485C13.0508 21.8427 13.0169 21.9539 13.0173 22.0677C13.0169 22.1815 13.0508 22.2927 13.1145 22.3869C13.1782 22.4811 13.2687 22.5537 13.3742 22.5955V22.5955ZM28.6085 31.3792C25.2085 32.7363 21.2262 32.2274 18.446 29.8713C18.2757 29.72 18.1392 29.5343 18.0453 29.3265C17.9514 29.1186 17.9023 28.8931 17.9013 28.6649V24.4615L24.8328 27.3078H24.8516C25.9787 27.7225 26.9743 28.0617 28.0638 28.1183C28.2084 28.1276 28.3444 28.1907 28.4451 28.2953C28.5459 28.3999 28.6041 28.5384 28.6085 28.6838V31.3792ZM25.0394 17.9586L34.6759 22.0677L25.0394 26.1768L15.0648 22.0677L25.0394 17.9586Z" fill="white"/>
<path d="M36.6859 27.5221V23.9596C36.6886 23.8846 36.6758 23.8099 36.6484 23.7401C36.621 23.6703 36.5796 23.6069 36.5267 23.5538C36.4739 23.5008 36.4107 23.4592 36.3411 23.4318C36.2716 23.4043 36.1971 23.3914 36.1224 23.3941C36.0477 23.3914 35.9732 23.4043 35.9037 23.4318C35.8341 23.4592 35.7709 23.5008 35.7181 23.5538C35.6652 23.6069 35.6238 23.6703 35.5964 23.7401C35.569 23.8099 35.5562 23.8846 35.5589 23.9596V27.5221C35.5562 27.597 35.569 27.6717 35.5964 27.7415C35.6238 27.8113 35.6652 27.8747 35.7181 27.9278C35.7709 27.9808 35.8341 28.0224 35.9037 28.0499C35.9732 28.0773 36.0477 28.0902 36.1224 28.0875C36.2719 28.0875 36.4152 28.028 36.5209 27.9219C36.6266 27.8159 36.6859 27.672 36.6859 27.5221Z" fill="white"/>
</g>
<g style="mix-blend-mode:screen">
<rect x="0.5" y="0.5" width="49" height="49" rx="9.5" stroke="url(#paint0_linear_2820_2794)"/>
</g>
<defs>
<linearGradient id="paint0_linear_2820_2794" x1="25" y1="0" x2="25" y2="50" gradientUnits="userSpaceOnUse">
<stop stop-color="white"/>
<stop offset="1" stop-color="white" stop-opacity="0"/>
</linearGradient>
<clipPath id="clip0_2820_2794">
<rect width="23.6686" height="16.4554" fill="white" transform="translate(13.0173 16.7969)"/>
</clipPath>
</defs>
</svg>
