<svg width="189" height="172" viewBox="0 0 189 172" fill="none" xmlns="http://www.w3.org/2000/svg">
<path opacity="0.7" d="M2.05202 3.82433C3.18533 3.82433 4.10405 2.96825 4.10405 1.91223C4.10405 0.856199 3.18533 0.000106812 2.05202 0.000106812C0.918718 0.000106812 0 0.856199 0 1.91223C0 2.96825 0.918718 3.82433 2.05202 3.82433Z" fill="white"/>
<path opacity="0.7" d="M20.4617 3.82397C21.595 3.82397 22.5137 2.96796 22.5137 1.912C22.5137 0.856037 21.595 0 20.4617 0C19.3284 0 18.4097 0.856037 18.4097 1.912C18.4097 2.96796 19.3284 3.82397 20.4617 3.82397Z" fill="white"/>
<path opacity="0.7" d="M38.886 3.82397C40.0193 3.82397 40.938 2.96796 40.938 1.912C40.938 0.856037 40.0193 0 38.886 0C37.7527 0 36.834 0.856037 36.834 1.912C36.834 2.96796 37.7527 3.82397 38.886 3.82397Z" fill="white"/>
<path opacity="0.7" d="M57.2957 3.82397C58.429 3.82397 59.3477 2.96796 59.3477 1.912C59.3477 0.856037 58.429 0 57.2957 0C56.1624 0 55.2437 0.856037 55.2437 1.912C55.2437 2.96796 56.1624 3.82397 57.2957 3.82397Z" fill="white"/>
<path opacity="0.7" d="M75.72 3.82397C76.8533 3.82397 77.772 2.96796 77.772 1.912C77.772 0.856037 76.8533 0 75.72 0C74.5867 0 73.668 0.856037 73.668 1.912C73.668 2.96796 74.5867 3.82397 75.72 3.82397Z" fill="white"/>
<path opacity="0.7" d="M96.1817 1.912C96.1817 2.96359 95.2583 3.82397 94.1297 3.82397C93.001 3.82397 92.0776 2.97725 92.0776 1.912C92.0776 0.860406 93.001 0 94.1297 0C95.2583 0 96.1817 0.846749 96.1817 1.912Z" fill="white"/>
<path opacity="0.7" d="M112.539 3.82397C113.673 3.82397 114.591 2.96796 114.591 1.912C114.591 0.856037 113.673 0 112.539 0C111.406 0 110.487 0.856037 110.487 1.912C110.487 2.96796 111.406 3.82397 112.539 3.82397Z" fill="white"/>
<path opacity="0.7" d="M133.001 1.912C133.001 2.96359 132.078 3.82397 130.949 3.82397C129.82 3.82397 128.897 2.97725 128.897 1.912C128.897 0.860406 129.82 0 130.949 0C132.092 0 133.001 0.846749 133.001 1.912Z" fill="white"/>
<path opacity="0.7" d="M149.373 3.82397C150.507 3.82397 151.425 2.96796 151.425 1.912C151.425 0.856037 150.507 0 149.373 0C148.24 0 147.321 0.856037 147.321 1.912C147.321 2.96796 148.24 3.82397 149.373 3.82397Z" fill="white"/>
<path opacity="0.7" d="M169.835 1.912C169.835 2.96359 168.912 3.82397 167.783 3.82397C166.654 3.82397 165.731 2.97725 165.731 1.912C165.731 0.860406 166.654 0 167.783 0C168.926 0 169.835 0.846749 169.835 1.912Z" fill="white"/>
<path opacity="0.7" d="M186.207 3.82397C187.341 3.82397 188.259 2.96796 188.259 1.912C188.259 0.856037 187.341 0 186.207 0C185.074 0 184.155 0.856037 184.155 1.912C184.155 2.96796 185.074 3.82397 186.207 3.82397Z" fill="white"/>
<path opacity="0.7" d="M2.05202 19.0648C3.18533 19.0648 4.10405 18.2088 4.10405 17.1528C4.10405 16.0969 3.18533 15.2408 2.05202 15.2408C0.918718 15.2408 0 16.0969 0 17.1528C0 18.2088 0.918718 19.0648 2.05202 19.0648Z" fill="white"/>
<path opacity="0.7" d="M20.4617 19.065C21.595 19.065 22.5137 18.2089 22.5137 17.1529C22.5137 16.0969 21.595 15.2408 20.4617 15.2408C19.3284 15.2408 18.4097 16.0969 18.4097 17.1529C18.4097 18.2089 19.3284 19.065 20.4617 19.065Z" fill="white"/>
<path opacity="0.7" d="M38.886 19.065C40.0193 19.065 40.938 18.2089 40.938 17.1529C40.938 16.0969 40.0193 15.2408 38.886 15.2408C37.7527 15.2408 36.834 16.0969 36.834 17.1529C36.834 18.2089 37.7527 19.065 38.886 19.065Z" fill="white"/>
<path opacity="0.7" d="M57.2957 19.065C58.429 19.065 59.3477 18.2089 59.3477 17.1529C59.3477 16.0969 58.429 15.2408 57.2957 15.2408C56.1624 15.2408 55.2437 16.0969 55.2437 17.1529C55.2437 18.2089 56.1624 19.065 57.2957 19.065Z" fill="white"/>
<path opacity="0.7" d="M75.72 19.065C76.8533 19.065 77.772 18.2089 77.772 17.1529C77.772 16.0969 76.8533 15.2408 75.72 15.2408C74.5867 15.2408 73.668 16.0969 73.668 17.1529C73.668 18.2089 74.5867 19.065 75.72 19.065Z" fill="white"/>
<path opacity="0.7" d="M96.1817 17.1529C96.1817 18.2046 95.2583 19.065 94.1297 19.065C93.001 19.065 92.0776 18.2182 92.0776 17.1529C92.0776 16.1012 93.001 15.2408 94.1297 15.2408C95.2583 15.2544 96.1817 16.1012 96.1817 17.1529Z" fill="white"/>
<path opacity="0.7" d="M112.539 19.065C113.673 19.065 114.591 18.2089 114.591 17.1529C114.591 16.0969 113.673 15.2408 112.539 15.2408C111.406 15.2408 110.487 16.0969 110.487 17.1529C110.487 18.2089 111.406 19.065 112.539 19.065Z" fill="white"/>
<path opacity="0.7" d="M133.001 17.1529C133.001 18.2046 132.078 19.065 130.949 19.065C129.82 19.065 128.897 18.2182 128.897 17.1529C128.897 16.1012 129.82 15.2408 130.949 15.2408C132.092 15.2544 133.001 16.1012 133.001 17.1529Z" fill="white"/>
<path opacity="0.7" d="M149.373 19.065C150.507 19.065 151.425 18.2089 151.425 17.1529C151.425 16.0969 150.507 15.2408 149.373 15.2408C148.24 15.2408 147.321 16.0969 147.321 17.1529C147.321 18.2089 148.24 19.065 149.373 19.065Z" fill="white"/>
<path opacity="0.7" d="M169.835 17.1529C169.835 18.2046 168.912 19.065 167.783 19.065C166.654 19.065 165.731 18.2182 165.731 17.1529C165.731 16.1012 166.654 15.2408 167.783 15.2408C168.926 15.2544 169.835 16.1012 169.835 17.1529Z" fill="white"/>
<path opacity="0.7" d="M186.207 19.065C187.341 19.065 188.259 18.2089 188.259 17.1529C188.259 16.0969 187.341 15.2408 186.207 15.2408C185.074 15.2408 184.155 16.0969 184.155 17.1529C184.155 18.2089 185.074 19.065 186.207 19.065Z" fill="white"/>
<path opacity="0.7" d="M4.10405 32.4076C4.10405 33.4591 3.18064 34.3194 2.05202 34.3194C0.923406 34.3194 0 33.4591 0 32.4076C0 31.3561 0.908749 30.4957 2.05202 30.4957C3.18064 30.5094 4.10405 31.3561 4.10405 32.4076Z" fill="white"/>
<path opacity="0.7" d="M22.5137 32.4074C22.5137 33.4589 21.605 34.3193 20.4617 34.3193C19.3331 34.3193 18.4097 33.4589 18.4097 32.4074C18.4097 31.3559 19.3331 30.4955 20.4617 30.4955C21.605 30.5092 22.5137 31.3559 22.5137 32.4074Z" fill="white"/>
<path opacity="0.7" d="M40.9234 32.4074C40.9234 33.4589 40 34.3193 38.8714 34.3193C37.7427 34.3193 36.8193 33.4589 36.8193 32.4074C36.8193 31.3559 37.7281 30.4955 38.8714 30.4955C40.0146 30.5092 40.9234 31.3559 40.9234 32.4074Z" fill="white"/>
<path opacity="0.7" d="M59.3477 32.4074C59.3477 33.4589 58.4389 34.3193 57.2957 34.3193C56.1671 34.3193 55.2437 33.4589 55.2437 32.4074C55.2437 31.3559 56.1671 30.4955 57.2957 30.4955C58.4243 30.5092 59.3477 31.3559 59.3477 32.4074Z" fill="white"/>
<path opacity="0.7" d="M77.7574 32.4074C77.7574 33.4589 76.834 34.3193 75.7053 34.3193C74.5767 34.3193 73.6533 33.4589 73.6533 32.4074C73.6533 31.3559 74.5621 30.4955 75.7053 30.4955C76.8486 30.5092 77.7574 31.3559 77.7574 32.4074Z" fill="white"/>
<path opacity="0.7" d="M96.1817 32.4074C96.1817 33.4589 95.2583 34.3193 94.1297 34.3193C93.001 34.3193 92.0776 33.4589 92.0776 32.4074C92.0776 31.3559 93.001 30.4955 94.1297 30.4955C95.2583 30.5092 96.1817 31.3559 96.1817 32.4074Z" fill="white"/>
<path opacity="0.7" d="M114.591 32.4074C114.591 33.4589 113.668 34.3193 112.539 34.3193C111.411 34.3193 110.487 33.4589 110.487 32.4074C110.487 31.3559 111.396 30.4955 112.539 30.4955C113.668 30.5092 114.591 31.3559 114.591 32.4074Z" fill="white"/>
<path opacity="0.7" d="M133.001 32.4074C133.001 33.4589 132.078 34.3193 130.949 34.3193C129.82 34.3193 128.897 33.4589 128.897 32.4074C128.897 31.3559 129.82 30.4955 130.949 30.4955C132.092 30.5092 133.001 31.3559 133.001 32.4074Z" fill="white"/>
<path opacity="0.7" d="M151.425 32.4074C151.425 33.4589 150.502 34.3193 149.373 34.3193C148.245 34.3193 147.321 33.4589 147.321 32.4074C147.321 31.3559 148.23 30.4955 149.373 30.4955C150.502 30.5092 151.425 31.3559 151.425 32.4074Z" fill="white"/>
<path opacity="0.7" d="M169.835 32.4074C169.835 33.4589 168.912 34.3193 167.783 34.3193C166.654 34.3193 165.731 33.4589 165.731 32.4074C165.731 31.3559 166.654 30.4955 167.783 30.4955C168.926 30.5092 169.835 31.3559 169.835 32.4074Z" fill="white"/>
<path opacity="0.7" d="M188.259 32.4074C188.259 33.4589 187.351 34.3193 186.207 34.3193C185.064 34.3193 184.155 33.4589 184.155 32.4074C184.155 31.3559 185.064 30.4955 186.207 30.4955C187.351 30.4955 188.259 31.3559 188.259 32.4074Z" fill="white"/>
<path opacity="0.7" d="M4.10405 47.662C4.10405 48.7136 3.18064 49.574 2.05202 49.574C0.923406 49.574 0 48.7272 0 47.662C0 46.6104 0.908749 45.75 2.05202 45.75C3.18064 45.75 4.10405 46.6104 4.10405 47.662Z" fill="white"/>
<path opacity="0.7" d="M22.5137 47.6619C22.5137 48.7136 21.605 49.574 20.4617 49.574C19.3331 49.574 18.4097 48.7272 18.4097 47.6619C18.4097 46.6103 19.3331 45.7498 20.4617 45.7498C21.605 45.7498 22.5137 46.6103 22.5137 47.6619Z" fill="white"/>
<path opacity="0.7" d="M40.9234 47.6619C40.9234 48.7136 40 49.574 38.8714 49.574C37.7427 49.574 36.8193 48.7272 36.8193 47.6619C36.8193 46.6103 37.7281 45.7498 38.8714 45.7498C40.0146 45.7498 40.9234 46.6103 40.9234 47.6619Z" fill="white"/>
<path opacity="0.7" d="M59.3477 47.6619C59.3477 48.7136 58.4389 49.574 57.2957 49.574C56.1671 49.574 55.2437 48.7272 55.2437 47.6619C55.2437 46.6103 56.1671 45.7498 57.2957 45.7498C58.4243 45.7498 59.3477 46.6103 59.3477 47.6619Z" fill="white"/>
<path opacity="0.7" d="M77.7574 47.6619C77.7574 48.7136 76.834 49.574 75.7053 49.574C74.5767 49.574 73.6533 48.7272 73.6533 47.6619C73.6533 46.6103 74.5621 45.7498 75.7053 45.7498C76.8486 45.7498 77.7574 46.6103 77.7574 47.6619Z" fill="white"/>
<path opacity="0.7" d="M96.1817 47.6619C96.1817 48.7136 95.2583 49.574 94.1297 49.574C93.001 49.574 92.0776 48.7272 92.0776 47.6619C92.0776 46.6103 93.001 45.7498 94.1297 45.7498C95.2583 45.7498 96.1817 46.6103 96.1817 47.6619Z" fill="white"/>
<path opacity="0.7" d="M114.591 47.6619C114.591 48.7136 113.668 49.574 112.539 49.574C111.411 49.574 110.487 48.7272 110.487 47.6619C110.487 46.6103 111.396 45.7498 112.539 45.7498C113.668 45.7498 114.591 46.6103 114.591 47.6619Z" fill="white"/>
<path opacity="0.7" d="M133.001 47.6619C133.001 48.7136 132.078 49.574 130.949 49.574C129.82 49.574 128.897 48.7272 128.897 47.6619C128.897 46.6103 129.82 45.7498 130.949 45.7498C132.092 45.7498 133.001 46.6103 133.001 47.6619Z" fill="white"/>
<path opacity="0.7" d="M151.425 47.6619C151.425 48.7136 150.502 49.574 149.373 49.574C148.245 49.574 147.321 48.7272 147.321 47.6619C147.321 46.6103 148.23 45.7498 149.373 45.7498C150.502 45.7498 151.425 46.6103 151.425 47.6619Z" fill="white"/>
<path opacity="0.7" d="M169.835 47.6619C169.835 48.7136 168.912 49.574 167.783 49.574C166.654 49.574 165.731 48.7272 165.731 47.6619C165.731 46.6103 166.654 45.7498 167.783 45.7498C168.926 45.7498 169.835 46.6103 169.835 47.6619Z" fill="white"/>
<path opacity="0.7" d="M188.259 47.6619C188.259 48.7136 187.351 49.574 186.207 49.574C185.064 49.574 184.155 48.7272 184.155 47.6619C184.155 46.6103 185.064 45.7498 186.207 45.7498C187.351 45.7498 188.259 46.6103 188.259 47.6619Z" fill="white"/>
<path opacity="0.7" d="M2.05202 64.8282C3.18533 64.8282 4.10405 63.9723 4.10405 62.9164C4.10405 61.8605 3.18533 61.0045 2.05202 61.0045C0.918718 61.0045 0 61.8605 0 62.9164C0 63.9723 0.918718 64.8282 2.05202 64.8282Z" fill="white"/>
<path opacity="0.7" d="M20.4617 64.8281C21.595 64.8281 22.5137 63.9722 22.5137 62.9163C22.5137 61.8604 21.595 61.0044 20.4617 61.0044C19.3284 61.0044 18.4097 61.8604 18.4097 62.9163C18.4097 63.9722 19.3284 64.8281 20.4617 64.8281Z" fill="white"/>
<path opacity="0.7" d="M38.886 64.8281C40.0193 64.8281 40.938 63.9722 40.938 62.9163C40.938 61.8604 40.0193 61.0044 38.886 61.0044C37.7527 61.0044 36.834 61.8604 36.834 62.9163C36.834 63.9722 37.7527 64.8281 38.886 64.8281Z" fill="white"/>
<path opacity="0.7" d="M57.2957 64.8281C58.429 64.8281 59.3477 63.9722 59.3477 62.9163C59.3477 61.8604 58.429 61.0044 57.2957 61.0044C56.1624 61.0044 55.2437 61.8604 55.2437 62.9163C55.2437 63.9722 56.1624 64.8281 57.2957 64.8281Z" fill="white"/>
<path opacity="0.7" d="M75.72 64.8281C76.8533 64.8281 77.772 63.9722 77.772 62.9163C77.772 61.8604 76.8533 61.0044 75.72 61.0044C74.5867 61.0044 73.668 61.8604 73.668 62.9163C73.668 63.9722 74.5867 64.8281 75.72 64.8281Z" fill="white"/>
<path opacity="0.7" d="M96.1817 62.9163C96.1817 63.9678 95.2583 64.8281 94.1297 64.8281C93.001 64.8281 92.0776 63.9814 92.0776 62.9163C92.0776 61.8511 93.001 61.0044 94.1297 61.0044C95.2583 61.0044 96.1817 61.8647 96.1817 62.9163Z" fill="white"/>
<path opacity="0.7" d="M112.539 64.8281C113.673 64.8281 114.591 63.9722 114.591 62.9163C114.591 61.8604 113.673 61.0044 112.539 61.0044C111.406 61.0044 110.487 61.8604 110.487 62.9163C110.487 63.9722 111.406 64.8281 112.539 64.8281Z" fill="white"/>
<path opacity="0.7" d="M133.001 62.9163C133.001 63.9678 132.078 64.8281 130.949 64.8281C129.82 64.8281 128.897 63.9814 128.897 62.9163C128.897 61.8511 129.82 61.0044 130.949 61.0044C132.092 61.0044 133.001 61.8647 133.001 62.9163Z" fill="white"/>
<path opacity="0.7" d="M149.373 64.8281C150.507 64.8281 151.425 63.9722 151.425 62.9163C151.425 61.8604 150.507 61.0044 149.373 61.0044C148.24 61.0044 147.321 61.8604 147.321 62.9163C147.321 63.9722 148.24 64.8281 149.373 64.8281Z" fill="white"/>
<path opacity="0.7" d="M169.835 62.9163C169.835 63.9678 168.912 64.8281 167.783 64.8281C166.654 64.8281 165.731 63.9814 165.731 62.9163C165.731 61.8511 166.654 61.0044 167.783 61.0044C168.926 61.0044 169.835 61.8647 169.835 62.9163Z" fill="white"/>
<path opacity="0.7" d="M186.207 64.8281C187.341 64.8281 188.259 63.9722 188.259 62.9163C188.259 61.8604 187.341 61.0044 186.207 61.0044C185.074 61.0044 184.155 61.8604 184.155 62.9163C184.155 63.9722 185.074 64.8281 186.207 64.8281Z" fill="white"/>
<path opacity="0.7" d="M2.05202 80.0833C3.18533 80.0833 4.10405 79.2273 4.10405 78.1713C4.10405 77.1153 3.18533 76.2593 2.05202 76.2593C0.918718 76.2593 0 77.1153 0 78.1713C0 79.2273 0.918718 80.0833 2.05202 80.0833Z" fill="white"/>
<path opacity="0.7" d="M20.4617 80.0833C21.595 80.0833 22.5137 79.2273 22.5137 78.1713C22.5137 77.1154 21.595 76.2593 20.4617 76.2593C19.3284 76.2593 18.4097 77.1154 18.4097 78.1713C18.4097 79.2273 19.3284 80.0833 20.4617 80.0833Z" fill="white"/>
<path opacity="0.7" d="M38.886 80.0833C40.0193 80.0833 40.938 79.2273 40.938 78.1713C40.938 77.1154 40.0193 76.2593 38.886 76.2593C37.7527 76.2593 36.834 77.1154 36.834 78.1713C36.834 79.2273 37.7527 80.0833 38.886 80.0833Z" fill="white"/>
<path opacity="0.7" d="M57.2957 80.0833C58.429 80.0833 59.3477 79.2273 59.3477 78.1713C59.3477 77.1154 58.429 76.2593 57.2957 76.2593C56.1624 76.2593 55.2437 77.1154 55.2437 78.1713C55.2437 79.2273 56.1624 80.0833 57.2957 80.0833Z" fill="white"/>
<path opacity="0.7" d="M75.72 80.0833C76.8533 80.0833 77.772 79.2273 77.772 78.1713C77.772 77.1154 76.8533 76.2593 75.72 76.2593C74.5867 76.2593 73.668 77.1154 73.668 78.1713C73.668 79.2273 74.5867 80.0833 75.72 80.0833Z" fill="white"/>
<path opacity="0.7" d="M96.1817 78.1713C96.1817 79.2229 95.2583 80.0833 94.1297 80.0833C93.001 80.0833 92.0776 79.2229 92.0776 78.1713C92.0776 77.1197 93.001 76.2593 94.1297 76.2593C95.2583 76.2593 96.1817 77.1061 96.1817 78.1713Z" fill="white"/>
<path opacity="0.7" d="M112.539 80.0833C113.673 80.0833 114.591 79.2273 114.591 78.1713C114.591 77.1154 113.673 76.2593 112.539 76.2593C111.406 76.2593 110.487 77.1154 110.487 78.1713C110.487 79.2273 111.406 80.0833 112.539 80.0833Z" fill="white"/>
<path opacity="0.7" d="M133.001 78.1713C133.001 79.2229 132.078 80.0833 130.949 80.0833C129.82 80.0833 128.897 79.2229 128.897 78.1713C128.897 77.1197 129.82 76.2593 130.949 76.2593C132.092 76.2593 133.001 77.1061 133.001 78.1713Z" fill="white"/>
<path opacity="0.7" d="M149.373 80.0833C150.507 80.0833 151.425 79.2273 151.425 78.1713C151.425 77.1154 150.507 76.2593 149.373 76.2593C148.24 76.2593 147.321 77.1154 147.321 78.1713C147.321 79.2273 148.24 80.0833 149.373 80.0833Z" fill="white"/>
<path opacity="0.7" d="M169.835 78.1713C169.835 79.2229 168.912 80.0833 167.783 80.0833C166.654 80.0833 165.731 79.2229 165.731 78.1713C165.731 77.1197 166.654 76.2593 167.783 76.2593C168.926 76.2593 169.835 77.1061 169.835 78.1713Z" fill="white"/>
<path opacity="0.7" d="M186.207 80.0833C187.341 80.0833 188.259 79.2273 188.259 78.1713C188.259 77.1154 187.341 76.2593 186.207 76.2593C185.074 76.2593 184.155 77.1154 184.155 78.1713C184.155 79.2273 185.074 80.0833 186.207 80.0833Z" fill="white"/>
<path opacity="0.7" d="M2.05202 95.3237C3.18533 95.3237 4.10405 94.4676 4.10405 93.4116C4.10405 92.3556 3.18533 91.4995 2.05202 91.4995C0.918718 91.4995 0 92.3556 0 93.4116C0 94.4676 0.918718 95.3237 2.05202 95.3237Z" fill="white"/>
<path opacity="0.7" d="M20.4617 95.3237C21.595 95.3237 22.5137 94.4676 22.5137 93.4116C22.5137 92.3556 21.595 91.4995 20.4617 91.4995C19.3284 91.4995 18.4097 92.3556 18.4097 93.4116C18.4097 94.4676 19.3284 95.3237 20.4617 95.3237Z" fill="white"/>
<path opacity="0.7" d="M38.886 95.3237C40.0193 95.3237 40.938 94.4676 40.938 93.4116C40.938 92.3556 40.0193 91.4995 38.886 91.4995C37.7527 91.4995 36.834 92.3556 36.834 93.4116C36.834 94.4676 37.7527 95.3237 38.886 95.3237Z" fill="white"/>
<path opacity="0.7" d="M57.2957 95.3237C58.429 95.3237 59.3477 94.4676 59.3477 93.4116C59.3477 92.3556 58.429 91.4995 57.2957 91.4995C56.1624 91.4995 55.2437 92.3556 55.2437 93.4116C55.2437 94.4676 56.1624 95.3237 57.2957 95.3237Z" fill="white"/>
<path opacity="0.7" d="M75.72 95.3237C76.8533 95.3237 77.772 94.4676 77.772 93.4116C77.772 92.3556 76.8533 91.4995 75.72 91.4995C74.5867 91.4995 73.668 92.3556 73.668 93.4116C73.668 94.4676 74.5867 95.3237 75.72 95.3237Z" fill="white"/>
<path opacity="0.7" d="M96.1817 93.4116C96.1817 94.4633 95.2583 95.3237 94.1297 95.3237C93.001 95.3237 92.0776 94.4769 92.0776 93.4116C92.0776 92.3463 93.001 91.4995 94.1297 91.4995C95.2583 91.5132 96.1817 92.3599 96.1817 93.4116Z" fill="white"/>
<path opacity="0.7" d="M112.539 95.3237C113.673 95.3237 114.591 94.4676 114.591 93.4116C114.591 92.3556 113.673 91.4995 112.539 91.4995C111.406 91.4995 110.487 92.3556 110.487 93.4116C110.487 94.4676 111.406 95.3237 112.539 95.3237Z" fill="white"/>
<path opacity="0.7" d="M133.001 93.4116C133.001 94.4633 132.078 95.3237 130.949 95.3237C129.82 95.3237 128.897 94.4769 128.897 93.4116C128.897 92.3463 129.82 91.4995 130.949 91.4995C132.092 91.5132 133.001 92.3599 133.001 93.4116Z" fill="white"/>
<path opacity="0.7" d="M149.373 95.3237C150.507 95.3237 151.425 94.4676 151.425 93.4116C151.425 92.3556 150.507 91.4995 149.373 91.4995C148.24 91.4995 147.321 92.3556 147.321 93.4116C147.321 94.4676 148.24 95.3237 149.373 95.3237Z" fill="white"/>
<path opacity="0.7" d="M169.835 93.4116C169.835 94.4633 168.912 95.3237 167.783 95.3237C166.654 95.3237 165.731 94.4769 165.731 93.4116C165.731 92.3463 166.654 91.4995 167.783 91.4995C168.926 91.5132 169.835 92.3599 169.835 93.4116Z" fill="white"/>
<path opacity="0.7" d="M186.207 95.3237C187.341 95.3237 188.259 94.4676 188.259 93.4116C188.259 92.3556 187.341 91.4995 186.207 91.4995C185.074 91.4995 184.155 92.3556 184.155 93.4116C184.155 94.4676 185.074 95.3237 186.207 95.3237Z" fill="white"/>
<path opacity="0.7" d="M4.10405 108.666C4.10405 109.718 3.18064 110.578 2.05202 110.578C0.923406 110.578 0 109.731 0 108.666C0 107.615 0.908749 106.754 2.05202 106.754C3.18064 106.768 4.10405 107.615 4.10405 108.666Z" fill="white"/>
<path opacity="0.7" d="M22.5137 108.666C22.5137 109.718 21.605 110.578 20.4617 110.578C19.3331 110.578 18.4097 109.731 18.4097 108.666C18.4097 107.615 19.3331 106.754 20.4617 106.754C21.605 106.768 22.5137 107.615 22.5137 108.666Z" fill="white"/>
<path opacity="0.7" d="M40.9234 108.666C40.9234 109.718 40 110.578 38.8714 110.578C37.7427 110.578 36.8193 109.731 36.8193 108.666C36.8193 107.615 37.7281 106.754 38.8714 106.754C40.0146 106.768 40.9234 107.615 40.9234 108.666Z" fill="white"/>
<path opacity="0.7" d="M59.3477 108.666C59.3477 109.718 58.4389 110.578 57.2957 110.578C56.1671 110.578 55.2437 109.731 55.2437 108.666C55.2437 107.615 56.1671 106.754 57.2957 106.754C58.4243 106.768 59.3477 107.615 59.3477 108.666Z" fill="white"/>
<path opacity="0.7" d="M77.7574 108.666C77.7574 109.718 76.834 110.578 75.7053 110.578C74.5767 110.578 73.6533 109.731 73.6533 108.666C73.6533 107.615 74.5621 106.754 75.7053 106.754C76.8486 106.768 77.7574 107.615 77.7574 108.666Z" fill="white"/>
<path opacity="0.7" d="M96.1817 108.666C96.1817 109.718 95.2583 110.578 94.1297 110.578C93.001 110.578 92.0776 109.731 92.0776 108.666C92.0776 107.615 93.001 106.754 94.1297 106.754C95.2583 106.768 96.1817 107.615 96.1817 108.666Z" fill="white"/>
<path opacity="0.7" d="M114.591 108.666C114.591 109.718 113.668 110.578 112.539 110.578C111.411 110.578 110.487 109.731 110.487 108.666C110.487 107.615 111.396 106.754 112.539 106.754C113.668 106.768 114.591 107.615 114.591 108.666Z" fill="white"/>
<path opacity="0.7" d="M133.001 108.666C133.001 109.718 132.078 110.578 130.949 110.578C129.82 110.578 128.897 109.731 128.897 108.666C128.897 107.615 129.82 106.754 130.949 106.754C132.092 106.768 133.001 107.615 133.001 108.666Z" fill="white"/>
<path opacity="0.7" d="M151.425 108.666C151.425 109.718 150.502 110.578 149.373 110.578C148.245 110.578 147.321 109.731 147.321 108.666C147.321 107.615 148.23 106.754 149.373 106.754C150.502 106.768 151.425 107.615 151.425 108.666Z" fill="white"/>
<path opacity="0.7" d="M169.835 108.666C169.835 109.718 168.912 110.578 167.783 110.578C166.654 110.578 165.731 109.731 165.731 108.666C165.731 107.615 166.654 106.754 167.783 106.754C168.926 106.768 169.835 107.615 169.835 108.666Z" fill="white"/>
<path opacity="0.7" d="M188.259 108.666C188.259 109.718 187.351 110.578 186.207 110.578C185.064 110.578 184.155 109.731 184.155 108.666C184.155 107.615 185.064 106.754 186.207 106.754C187.351 106.754 188.259 107.615 188.259 108.666Z" fill="white"/>
<path opacity="0.7" d="M4.10405 123.921C4.10405 124.973 3.18064 125.833 2.05202 125.833C0.923406 125.833 0 124.986 0 123.921C0 122.869 0.908749 122.009 2.05202 122.009C3.18064 122.009 4.10405 122.869 4.10405 123.921Z" fill="white"/>
<path opacity="0.7" d="M22.5137 123.921C22.5137 124.972 21.605 125.833 20.4617 125.833C19.3331 125.833 18.4097 124.986 18.4097 123.921C18.4097 122.869 19.3331 122.009 20.4617 122.009C21.605 122.009 22.5137 122.869 22.5137 123.921Z" fill="white"/>
<path opacity="0.7" d="M40.9234 123.921C40.9234 124.972 40 125.833 38.8714 125.833C37.7427 125.833 36.8193 124.986 36.8193 123.921C36.8193 122.869 37.7281 122.009 38.8714 122.009C40.0146 122.009 40.9234 122.869 40.9234 123.921Z" fill="white"/>
<path opacity="0.7" d="M59.3477 123.921C59.3477 124.972 58.4389 125.833 57.2957 125.833C56.1671 125.833 55.2437 124.986 55.2437 123.921C55.2437 122.869 56.1671 122.009 57.2957 122.009C58.4243 122.009 59.3477 122.869 59.3477 123.921Z" fill="white"/>
<path opacity="0.7" d="M77.7574 123.921C77.7574 124.972 76.834 125.833 75.7053 125.833C74.5767 125.833 73.6533 124.986 73.6533 123.921C73.6533 122.869 74.5621 122.009 75.7053 122.009C76.8486 122.009 77.7574 122.869 77.7574 123.921Z" fill="white"/>
<path opacity="0.7" d="M96.1817 123.921C96.1817 124.972 95.2583 125.833 94.1297 125.833C93.001 125.833 92.0776 124.986 92.0776 123.921C92.0776 122.869 93.001 122.009 94.1297 122.009C95.2583 122.009 96.1817 122.869 96.1817 123.921Z" fill="white"/>
<path opacity="0.7" d="M114.591 123.921C114.591 124.972 113.668 125.833 112.539 125.833C111.411 125.833 110.487 124.986 110.487 123.921C110.487 122.869 111.396 122.009 112.539 122.009C113.668 122.009 114.591 122.869 114.591 123.921Z" fill="white"/>
<path opacity="0.7" d="M133.001 123.921C133.001 124.972 132.078 125.833 130.949 125.833C129.82 125.833 128.897 124.986 128.897 123.921C128.897 122.869 129.82 122.009 130.949 122.009C132.092 122.009 133.001 122.869 133.001 123.921Z" fill="white"/>
<path opacity="0.7" d="M151.425 123.921C151.425 124.972 150.502 125.833 149.373 125.833C148.245 125.833 147.321 124.986 147.321 123.921C147.321 122.869 148.23 122.009 149.373 122.009C150.502 122.009 151.425 122.869 151.425 123.921Z" fill="white"/>
<path opacity="0.7" d="M169.835 123.921C169.835 124.972 168.912 125.833 167.783 125.833C166.654 125.833 165.731 124.986 165.731 123.921C165.731 122.869 166.654 122.009 167.783 122.009C168.926 122.009 169.835 122.869 169.835 123.921Z" fill="white"/>
<path opacity="0.7" d="M188.259 123.921C188.259 124.972 187.351 125.833 186.207 125.833C185.064 125.833 184.155 124.986 184.155 123.921C184.155 122.869 185.064 122.009 186.207 122.009C187.351 122.009 188.259 122.869 188.259 123.921Z" fill="white"/>
<path opacity="0.7" d="M2.05202 141.087C3.18533 141.087 4.10405 140.231 4.10405 139.175C4.10405 138.12 3.18533 137.264 2.05202 137.264C0.918718 137.264 0 138.12 0 139.175C0 140.231 0.918718 141.087 2.05202 141.087Z" fill="white"/>
<path opacity="0.7" d="M20.4617 141.087C21.595 141.087 22.5137 140.231 22.5137 139.175C22.5137 138.119 21.595 137.263 20.4617 137.263C19.3284 137.263 18.4097 138.119 18.4097 139.175C18.4097 140.231 19.3284 141.087 20.4617 141.087Z" fill="white"/>
<path opacity="0.7" d="M38.886 141.087C40.0193 141.087 40.938 140.231 40.938 139.175C40.938 138.119 40.0193 137.263 38.886 137.263C37.7527 137.263 36.834 138.119 36.834 139.175C36.834 140.231 37.7527 141.087 38.886 141.087Z" fill="white"/>
<path opacity="0.7" d="M57.2957 141.087C58.429 141.087 59.3477 140.231 59.3477 139.175C59.3477 138.119 58.429 137.263 57.2957 137.263C56.1624 137.263 55.2437 138.119 55.2437 139.175C55.2437 140.231 56.1624 141.087 57.2957 141.087Z" fill="white"/>
<path opacity="0.7" d="M75.72 141.087C76.8533 141.087 77.772 140.231 77.772 139.175C77.772 138.119 76.8533 137.263 75.72 137.263C74.5867 137.263 73.668 138.119 73.668 139.175C73.668 140.231 74.5867 141.087 75.72 141.087Z" fill="white"/>
<path opacity="0.7" d="M96.1817 139.175C96.1817 140.227 95.2583 141.087 94.1297 141.087C93.001 141.087 92.0776 140.241 92.0776 139.175C92.0776 138.11 93.001 137.263 94.1297 137.263C95.2583 137.263 96.1817 138.124 96.1817 139.175Z" fill="white"/>
<path opacity="0.7" d="M112.539 141.087C113.673 141.087 114.591 140.231 114.591 139.175C114.591 138.119 113.673 137.263 112.539 137.263C111.406 137.263 110.487 138.119 110.487 139.175C110.487 140.231 111.406 141.087 112.539 141.087Z" fill="white"/>
<path opacity="0.7" d="M133.001 139.175C133.001 140.227 132.078 141.087 130.949 141.087C129.82 141.087 128.897 140.241 128.897 139.175C128.897 138.11 129.82 137.263 130.949 137.263C132.092 137.263 133.001 138.124 133.001 139.175Z" fill="white"/>
<path opacity="0.7" d="M149.373 141.087C150.507 141.087 151.425 140.231 151.425 139.175C151.425 138.119 150.507 137.263 149.373 137.263C148.24 137.263 147.321 138.119 147.321 139.175C147.321 140.231 148.24 141.087 149.373 141.087Z" fill="white"/>
<path opacity="0.7" d="M169.835 139.175C169.835 140.227 168.912 141.087 167.783 141.087C166.654 141.087 165.731 140.241 165.731 139.175C165.731 138.11 166.654 137.263 167.783 137.263C168.926 137.263 169.835 138.124 169.835 139.175Z" fill="white"/>
<path opacity="0.7" d="M186.207 141.087C187.341 141.087 188.259 140.231 188.259 139.175C188.259 138.119 187.341 137.263 186.207 137.263C185.074 137.263 184.155 138.119 184.155 139.175C184.155 140.231 185.074 141.087 186.207 141.087Z" fill="white"/>
<path opacity="0.7" d="M4.10405 154.416C4.10405 155.468 3.18064 156.328 2.05202 156.328C0.923406 156.328 0 155.468 0 154.416C0 153.364 0.908749 152.504 2.05202 152.504C3.18064 152.518 4.10405 153.364 4.10405 154.416Z" fill="white"/>
<path opacity="0.7" d="M22.5137 154.416C22.5137 155.467 21.605 156.328 20.4617 156.328C19.3331 156.328 18.4097 155.467 18.4097 154.416C18.4097 153.364 19.3331 152.504 20.4617 152.504C21.605 152.518 22.5137 153.364 22.5137 154.416Z" fill="white"/>
<path opacity="0.7" d="M40.9234 154.416C40.9234 155.467 40 156.328 38.8714 156.328C37.7427 156.328 36.8193 155.467 36.8193 154.416C36.8193 153.364 37.7281 152.504 38.8714 152.504C40.0146 152.518 40.9234 153.364 40.9234 154.416Z" fill="white"/>
<path opacity="0.7" d="M59.3477 154.416C59.3477 155.467 58.4389 156.328 57.2957 156.328C56.1671 156.328 55.2437 155.467 55.2437 154.416C55.2437 153.364 56.1671 152.504 57.2957 152.504C58.4243 152.518 59.3477 153.364 59.3477 154.416Z" fill="white"/>
<path opacity="0.7" d="M77.7574 154.416C77.7574 155.467 76.834 156.328 75.7053 156.328C74.5767 156.328 73.6533 155.467 73.6533 154.416C73.6533 153.364 74.5621 152.504 75.7053 152.504C76.8486 152.518 77.7574 153.364 77.7574 154.416Z" fill="white"/>
<path opacity="0.7" d="M96.1817 154.416C96.1817 155.467 95.2583 156.328 94.1297 156.328C93.001 156.328 92.0776 155.467 92.0776 154.416C92.0776 153.364 93.001 152.504 94.1297 152.504C95.2583 152.518 96.1817 153.364 96.1817 154.416Z" fill="white"/>
<path opacity="0.7" d="M114.591 154.416C114.591 155.467 113.668 156.328 112.539 156.328C111.411 156.328 110.487 155.467 110.487 154.416C110.487 153.364 111.396 152.504 112.539 152.504C113.668 152.518 114.591 153.364 114.591 154.416Z" fill="white"/>
<path opacity="0.7" d="M133.001 154.416C133.001 155.467 132.078 156.328 130.949 156.328C129.82 156.328 128.897 155.467 128.897 154.416C128.897 153.364 129.82 152.504 130.949 152.504C132.092 152.518 133.001 153.364 133.001 154.416Z" fill="white"/>
<path opacity="0.7" d="M151.425 154.416C151.425 155.467 150.502 156.328 149.373 156.328C148.245 156.328 147.321 155.467 147.321 154.416C147.321 153.364 148.23 152.504 149.373 152.504C150.502 152.518 151.425 153.364 151.425 154.416Z" fill="white"/>
<path opacity="0.7" d="M169.835 154.416C169.835 155.467 168.912 156.328 167.783 156.328C166.654 156.328 165.731 155.467 165.731 154.416C165.731 153.364 166.654 152.504 167.783 152.504C168.926 152.518 169.835 153.364 169.835 154.416Z" fill="white"/>
<path opacity="0.7" d="M188.259 154.416C188.259 155.467 187.351 156.328 186.207 156.328C185.064 156.328 184.155 155.467 184.155 154.416C184.155 153.364 185.064 152.504 186.207 152.504C187.351 152.504 188.259 153.364 188.259 154.416Z" fill="white"/>
<path opacity="0.7" d="M2.05202 171.582C3.18533 171.582 4.10405 170.726 4.10405 169.671C4.10405 168.615 3.18533 167.759 2.05202 167.759C0.918718 167.759 0 168.615 0 169.671C0 170.726 0.918718 171.582 2.05202 171.582Z" fill="white"/>
<path opacity="0.7" d="M20.4617 171.583C21.595 171.583 22.5137 170.726 22.5137 169.67C22.5137 168.614 21.595 167.758 20.4617 167.758C19.3284 167.758 18.4097 168.614 18.4097 169.67C18.4097 170.726 19.3284 171.583 20.4617 171.583Z" fill="white"/>
<path opacity="0.7" d="M38.886 171.583C40.0193 171.583 40.938 170.726 40.938 169.67C40.938 168.614 40.0193 167.758 38.886 167.758C37.7527 167.758 36.834 168.614 36.834 169.67C36.834 170.726 37.7527 171.583 38.886 171.583Z" fill="white"/>
<path opacity="0.7" d="M57.2957 171.583C58.429 171.583 59.3477 170.726 59.3477 169.67C59.3477 168.614 58.429 167.758 57.2957 167.758C56.1624 167.758 55.2437 168.614 55.2437 169.67C55.2437 170.726 56.1624 171.583 57.2957 171.583Z" fill="white"/>
<path opacity="0.7" d="M75.72 171.583C76.8533 171.583 77.772 170.726 77.772 169.67C77.772 168.614 76.8533 167.758 75.72 167.758C74.5867 167.758 73.668 168.614 73.668 169.67C73.668 170.726 74.5867 171.583 75.72 171.583Z" fill="white"/>
<path opacity="0.7" d="M96.1817 169.67C96.1817 170.722 95.2583 171.583 94.1297 171.583C93.001 171.583 92.0776 170.722 92.0776 169.67C92.0776 168.619 93.001 167.758 94.1297 167.758C95.2583 167.772 96.1817 168.619 96.1817 169.67Z" fill="white"/>
<path opacity="0.7" d="M112.539 171.583C113.673 171.583 114.591 170.726 114.591 169.67C114.591 168.614 113.673 167.758 112.539 167.758C111.406 167.758 110.487 168.614 110.487 169.67C110.487 170.726 111.406 171.583 112.539 171.583Z" fill="white"/>
<path opacity="0.7" d="M133.001 169.67C133.001 170.722 132.078 171.583 130.949 171.583C129.82 171.583 128.897 170.722 128.897 169.67C128.897 168.619 129.82 167.758 130.949 167.758C132.092 167.772 133.001 168.619 133.001 169.67Z" fill="white"/>
<path opacity="0.7" d="M149.373 171.583C150.507 171.583 151.425 170.726 151.425 169.67C151.425 168.614 150.507 167.758 149.373 167.758C148.24 167.758 147.321 168.614 147.321 169.67C147.321 170.726 148.24 171.583 149.373 171.583Z" fill="white"/>
<path opacity="0.7" d="M169.835 169.67C169.835 170.722 168.912 171.583 167.783 171.583C166.654 171.583 165.731 170.722 165.731 169.67C165.731 168.619 166.654 167.758 167.783 167.758C168.926 167.772 169.835 168.619 169.835 169.67Z" fill="white"/>
<path opacity="0.7" d="M186.207 171.583C187.341 171.583 188.259 170.726 188.259 169.67C188.259 168.614 187.341 167.758 186.207 167.758C185.074 167.758 184.155 168.614 184.155 169.67C184.155 170.726 185.074 171.583 186.207 171.583Z" fill="white"/>
</svg>
