<svg width="50" height="50" viewBox="0 0 50 50" fill="none" xmlns="http://www.w3.org/2000/svg">
<g style="mix-blend-mode:screen">
<rect x="0.5" y="0.5" width="49" height="49" rx="9.5" stroke="url(#paint0_linear_2833_2794)"/>
</g>
<g clip-path="url(#clip0_2833_2794)">
<path d="M34.6713 32.5414C34.8134 32.5414 34.9496 32.485 35.0501 32.3846C35.1505 32.2841 35.2069 32.1479 35.2069 32.0058C35.2069 31.8638 35.1505 31.7275 35.0501 31.6271C34.9496 31.5266 34.8134 31.4702 34.6713 31.4702H17.7105C17.1423 31.4702 16.5974 31.2445 16.1956 30.8427C15.7938 30.4409 15.5681 29.896 15.5681 29.3278C15.5681 28.7596 15.7938 28.2147 16.1956 27.8129C16.5974 27.4111 17.1423 27.1854 17.7105 27.1854H20.5671C20.7091 27.1854 20.8453 27.129 20.9458 27.0285C21.0462 26.9281 21.1027 26.7918 21.1027 26.6498C21.1027 26.5077 21.0462 26.3715 20.9458 26.271C20.8453 26.1706 20.7091 26.1142 20.5671 26.1142H19.3173C18.9859 26.1142 18.668 25.9825 18.4336 25.7481C18.1992 25.5138 18.0676 25.1959 18.0676 24.8644C18.0676 24.533 18.1992 24.2151 18.4336 23.9807C18.668 23.7464 18.9859 23.6147 19.3173 23.6147H33.6001C33.7422 23.6147 33.8784 23.5583 33.9789 23.4578C34.0793 23.3574 34.1357 23.2211 34.1357 23.0791C34.1357 22.937 34.0793 22.8008 33.9789 22.7003C33.8784 22.5999 33.7422 22.5435 33.6001 22.5435H18.4246C17.8564 22.5435 17.3115 22.3178 16.9097 21.916C16.5079 21.5142 16.2822 20.9693 16.2822 20.4011C16.2822 19.8328 16.5079 19.2879 16.9097 18.8861C17.3115 18.4844 17.8564 18.2586 18.4246 18.2586H33.6001C33.7422 18.2586 33.8784 18.2022 33.9789 18.1018C34.0793 18.0013 34.1357 17.8651 34.1357 17.723C34.1357 17.581 34.0793 17.4447 33.9789 17.3443C33.8784 17.2439 33.7422 17.1874 33.6001 17.1874H18.4246C17.6539 17.1834 16.9074 17.4565 16.3212 17.957C15.735 18.4574 15.3482 19.1519 15.2314 19.9137C15.1145 20.6755 15.2753 21.454 15.6845 22.1072C16.0937 22.7603 16.724 23.2447 17.4606 23.4719C17.1746 23.8526 17.0127 24.312 16.9967 24.7879C16.9807 25.2637 17.1115 25.733 17.3713 26.132C16.5528 26.2187 15.7987 26.616 15.2646 27.2422C14.7304 27.8684 14.4569 28.6757 14.5004 29.4976C14.5439 30.3196 14.9011 31.0935 15.4984 31.6598C16.0956 32.2261 16.8874 32.5417 17.7105 32.5414H34.6713Z" fill="white"/>
<path d="M26.4589 26.6499C26.4564 26.7209 26.4685 26.7916 26.4946 26.8577C26.5206 26.9239 26.56 26.9839 26.6102 27.0341C26.6605 27.0844 26.7205 27.1237 26.7866 27.1498C26.8527 27.1758 26.9235 27.188 26.9945 27.1855H34.6715C34.8136 27.1855 34.9498 27.129 35.0502 27.0286C35.1507 26.9281 35.2071 26.7919 35.2071 26.6499C35.2071 26.5078 35.1507 26.3716 35.0502 26.2711C34.9498 26.1707 34.8136 26.1143 34.6715 26.1143H26.9945C26.8524 26.1143 26.7162 26.1707 26.6158 26.2711C26.5153 26.3716 26.4589 26.5078 26.4589 26.6499Z" fill="white"/>
<path d="M22.5311 24.8645C22.4601 24.862 22.3893 24.8742 22.3232 24.9002C22.2571 24.9262 22.1971 24.9656 22.1468 25.0158C22.0966 25.0661 22.0572 25.1261 22.0312 25.1922C22.0052 25.2584 21.993 25.3291 21.9955 25.4001V28.1139C21.991 28.1799 22.0058 28.2459 22.0383 28.3036C22.0708 28.3613 22.1195 28.4082 22.1783 28.4386C22.2372 28.469 22.3036 28.4815 22.3695 28.4745C22.4354 28.4676 22.4977 28.4415 22.549 28.3995L23.5666 27.6854C23.6267 27.6431 23.6984 27.6204 23.7719 27.6204C23.8454 27.6204 23.9171 27.6431 23.9772 27.6854L24.9949 28.3995C25.0478 28.4344 25.1091 28.4546 25.1725 28.458C25.2358 28.4614 25.2989 28.4478 25.3553 28.4187C25.4116 28.3896 25.4592 28.3461 25.4932 28.2925C25.5271 28.2389 25.5462 28.1772 25.5484 28.1139V25.4001C25.5508 25.3291 25.5387 25.2584 25.5127 25.1922C25.4866 25.1261 25.4473 25.0661 25.397 25.0158C25.3468 24.9656 25.2867 24.9262 25.2206 24.9002C25.1545 24.8742 25.0838 24.862 25.0128 24.8645H22.5311Z" fill="white"/>
</g>
<defs>
<linearGradient id="paint0_linear_2833_2794" x1="25" y1="0" x2="25" y2="50" gradientUnits="userSpaceOnUse">
<stop stop-color="white"/>
<stop offset="1" stop-color="white" stop-opacity="0"/>
</linearGradient>
<clipPath id="clip0_2833_2794">
<rect width="20.7101" height="15.354" fill="white" transform="translate(14.497 17.1875)"/>
</clipPath>
</defs>
</svg>
